# xmcd
#
# Track frame offsets:
#	150
#	14978
#	29689
#	45140
#	62576
#	78537
#	94900
#	106130
#	118915
#	133317
#	148326
#	162983
#	176724
#	190165
#	207846
#	221581
#	234523
#	250106
#	266195
#	282779
#
# Disc length: 3949 seconds
#
# Revision: 1
# Processed by: cddbd v1.5.1PL0 Copyright (c) Steve Scherf et al.
# Submitted via: audiograbber 1.81.02
#
DISCID=330f6b14
DTITLE=Diverse - Volksmusik Emotionen [CD1)
DYEAR=2004
DGENRE=Country
TTITLE0=Kastelruther Spatzen - Herzenssache
TTITLE1=Stefanie Hertel - Tausendmal stärker
TTITLE2=Nockalm Quintett - Die kleine Insel Zärtlichkeit
TTITLE3=Monika Martin - Schweige mein Herz
TTITLE4=Jantje Smit - Sehnsucht nach Sonne
TTITLE5=Ursprung Buam - Geh´n oder bleiben
TTITLE6=Marc Pircher - Mei´ Herz schlägt für die Volksmusik
TTITLE7=Dolomitensextett Lienz - Carmencita Por Favor
TTITLE8=Die Edlseer - Lass Dich umarmen, mein Schatz
TTITLE9=Stefan Mross - Happy Volksmusik
TTITLE10=Die jungen Zillertaler - Morg´n
TTITLE11=AlpenRebellen - Ganz oder gar net
TTITLE12=Marianne and Michael - Auf immer und ewig
TTITLE13=Reiner Kirsten - Ich hab´ noch ein Bild von dir
TTITLE14=Die Zillertaler - Du bist das absolute Glück
TTITLE15=Axel Becker - Ein neuer Tag bricht an
TTITLE16=Florian Silberreisen - Das kann nur die Liebe sein
TTITLE17=Duo Herzklang - Zusammen für immer
TTITLE18=Sheila - Emotionen
TTITLE19=Vincent and Fernando - Herzen, die lieben
EXTD=
EXTT0=
EXTT1=
EXTT2=
EXTT3=
EXTT4=
EXTT5=
EXTT6=
EXTT7=
EXTT8=
EXTT9=
EXTT10=
EXTT11=
EXTT12=
EXTT13=
EXTT14=
EXTT15=
EXTT16=
EXTT17=
EXTT18=
EXTT19=
PLAYORDER=
